if (_typeface_js && _typeface_js.loadFace) _typeface_js.loadFace({"glyphs":{"S":{"x_min":92.734375,"x_max":630,"ha":711,"o":"m 630 247 q 614 339 630 298 q 568 414 599 380 q 491 475 538 447 q 380 530 444 503 q 284 576 323 554 q 221 623 245 598 q 187 676 198 647 q 176 741 176 704 q 189 807 176 776 q 227 861 202 839 q 287 896 252 883 q 366 910 323 910 q 476 894 428 910 q 566 855 524 879 l 576 922 q 487 956 540 943 q 369 970 435 970 q 267 953 315 970 q 183 906 219 936 q 128 833 148 875 q 108 739 108 790 q 121 651 108 689 q 164 580 134 612 q 242 520 194 548 q 359 462 290 492 q 452 416 413 439 q 515 367 491 393 q 549 310 538 340 q 561 243 561 280 q 543 162 561 198 q 497 101 526 126 q 427 62 467 76 q 341 49 387 49 q 204 69 266 49 q 102 114 142 89 l 92 46 q 193 5 132 22 q 337 -11 253 -11 q 449 6 396 -11 q 542 57 502 23 q 606 138 582 90 q 630 247 630 186 "},"/":{"x_min":-47.21875,"x_max":666.671875,"ha":696,"o":"m 666 953 l 608 965 l -47 -157 l 11 -169 l 666 953 "},"K":{"x_min":139,"x_max":806,"ha":838,"o":"m 806 6 l 283 512 l 778 959 l 689 959 l 206 517 l 206 959 l 139 959 l 139 0 l 206 0 l 206 501 l 731 -9 l 806 6 "},"7":{"x_min":76.0625,"x_max":658,"ha":743,"o":"m 658 893 l 658 939 l 76 939 l 84 881 l 583 881 l 196 5 l 259 -9 l 658 893 "},"d":{"x_min":75,"x_max":615,"ha":730,"o":"m 615 0 l 615 993 l 550 979 l 550 628 q 468 653 511 644 q 375 662 425 662 q 261 640 315 662 q 165 574 206 618 q 99 464 123 530 q 75 308 75 397 q 96 165 75 226 q 154 64 118 104 q 240 5 191 24 q 343 -14 288 -14 q 463 18 413 -14 q 551 96 512 51 l 567 0 l 615 0 m 550 165 q 452 78 501 111 q 344 46 404 46 q 200 114 256 46 q 143 311 143 182 q 161 442 143 386 q 211 534 179 497 q 285 588 243 571 q 376 606 327 606 q 468 594 425 606 q 550 564 511 583 l 550 165 "},",":{"x_min":51.390625,"x_max":209.71875,"ha":294,"o":"m 209 113 l 125 113 l 51 -176 l 86 -184 l 209 113 "},"Y":{"x_min":56.71875,"x_max":805.671875,"ha":863,"o":"m 805 959 l 733 959 l 431 466 l 123 968 l 56 954 l 397 411 l 397 0 l 464 0 l 464 412 l 805 959 "},"E":{"x_min":139,"x_max":637.9375,"ha":702,"o":"m 637 0 l 637 60 l 206 60 l 206 472 l 550 472 l 542 532 l 206 532 l 206 899 l 624 899 l 624 959 l 139 959 l 139 0 l 637 0 "},"y":{"x_min":50,"x_max":613.890625,"ha":663,"o":"m 613 653 l 545 653 l 336 73 l 113 659 l 50 646 l 304 -4 l 269 -93 q 222 -168 248 -147 q 154 -189 197 -189 q 129 -189 138 -189 q 112 -189 119 -189 l 122 -244 q 136 -246 129 -245 q 152 -247 144 -247 q 258 -214 219 -247 q 327 -99 297 -181 l 613 653 "},"\"":{"x_min":104.171875,"x_max":408.328125,"ha":513,"o":"m 408 939 l 320 939 l 347 690 l 381 683 l 408 939 m 190 939 l 104 939 l 129 690 l 165 683 l 190 939 "},"‹":{"x_min":59.71875,"x_max":337.5,"ha":422,"o":"m 337 653 l 290 653 l 59 327 l 291 -7 l 336 5 l 141 327 l 337 653 "},"„":{"x_min":75,"x_max":433.328125,"ha":513,"o":"m 213 113 l 129 113 l 75 -176 l 111 -184 l 213 113 m 433 113 l 348 113 l 294 -176 l 330 -184 l 433 113 "},"g":{"x_min":39,"x_max":657.234375,"ha":696,"o":"m 257 76 q 293 69 275 72 q 335 60 311 65 l 385 50 q 528 5 486 30 q 570 -63 570 -19 q 552 -114 570 -91 q 504 -156 535 -138 q 431 -184 474 -174 q 336 -194 388 -194 q 246 -186 287 -194 q 173 -164 204 -178 q 124 -126 142 -149 q 106 -74 106 -103 q 257 76 106 12 m 496 447 q 450 327 496 375 q 323 279 404 279 q 252 292 283 279 q 198 328 221 305 q 164 382 176 351 q 153 447 153 412 q 198 568 153 521 q 321 616 243 616 q 392 602 359 616 q 448 566 425 589 q 483 512 471 543 q 496 447 496 482 m 483 611 q 321 667 416 667 q 232 651 275 667 q 157 607 190 636 q 105 539 124 579 q 86 447 86 498 q 119 329 86 379 q 207 254 153 280 q 158 215 175 234 q 142 169 142 196 q 197 100 142 130 q 78 17 118 64 q 39 -77 39 -28 q 61 -150 39 -119 q 122 -203 83 -181 q 214 -235 161 -224 q 330 -247 268 -247 q 448 -233 393 -247 q 546 -195 504 -220 q 611 -135 587 -170 q 635 -55 635 -99 q 579 49 635 14 q 411 107 523 85 l 361 116 q 285 132 315 125 q 238 147 256 140 q 215 162 221 154 q 209 182 209 171 q 221 207 209 194 q 261 234 233 219 q 324 228 293 228 q 414 243 371 228 q 489 287 457 258 q 541 355 522 315 q 561 447 561 396 q 518 577 561 522 l 657 592 l 644 664 l 483 611 "},"–":{"x_min":86,"x_max":549,"ha":635,"o":"m 549 360 l 549 425 l 86 425 l 86 360 l 549 360 "},"ƒ":{"x_min":111.328125,"x_max":488,"ha":530,"o":"m 215 629 l 119 629 l 111 573 l 207 573 l 115 0 l 178 0 l 269 573 l 428 573 l 428 629 l 279 629 l 301 770 q 339 861 312 832 q 426 891 365 891 q 488 884 455 891 l 488 945 q 460 948 476 946 q 429 951 444 951 q 300 909 346 951 q 239 775 254 867 l 215 629 "},"e":{"x_min":72,"x_max":600,"ha":672,"o":"m 600 340 q 584 467 600 408 q 536 571 568 526 q 458 641 505 615 q 349 667 412 667 q 239 643 290 667 q 151 575 188 619 q 92 467 113 530 q 72 326 72 404 q 92 184 72 247 q 151 77 113 120 q 241 9 188 33 q 359 -14 294 -14 q 492 13 430 -14 q 598 81 554 41 l 588 143 q 481 70 540 98 q 362 42 422 42 q 266 63 308 42 q 195 122 223 84 q 153 212 168 159 q 139 327 139 264 l 600 327 l 600 340 m 529 381 l 141 381 q 204 548 152 483 q 349 613 256 613 q 425 594 392 613 q 481 544 458 576 q 516 470 504 512 q 529 381 529 428 "},"J":{"x_min":42.84375,"x_max":364,"ha":499,"o":"m 364 230 l 364 959 l 297 959 l 297 224 q 254 95 297 138 q 137 52 212 52 q 88 55 113 52 q 42 65 63 58 l 52 1 q 90 -5 69 -2 q 135 -8 112 -8 q 300 51 236 -8 q 364 230 364 110 "},"|":{"x_min":157,"x_max":215,"ha":372,"o":"m 215 -255 l 215 1004 l 157 994 l 157 -265 l 215 -255 "},"^":{"x_min":137.5,"x_max":491.671875,"ha":635,"o":"m 491 771 l 348 974 l 288 974 l 137 767 l 181 767 l 316 893 l 455 764 l 491 771 "},"q":{"x_min":75,"x_max":612,"ha":727,"o":"m 612 -237 l 612 618 q 508 649 564 636 q 388 662 452 662 q 266 640 323 662 q 167 574 209 618 q 99 464 124 530 q 75 308 75 397 q 96 165 75 226 q 154 64 118 104 q 239 5 191 24 q 341 -14 287 -14 q 461 18 411 -14 q 547 94 511 51 l 547 -251 l 612 -237 m 547 165 q 450 78 498 111 q 343 46 401 46 q 263 63 300 46 q 200 114 226 80 q 158 198 173 148 q 143 311 143 247 q 161 443 143 387 q 212 535 180 499 q 288 588 244 571 q 380 606 331 606 q 474 596 433 606 q 547 575 515 586 l 547 165 "},"b":{"x_min":115,"x_max":652.0625,"ha":727,"o":"m 652 344 q 630 487 652 426 q 572 588 609 548 q 488 647 536 628 q 385 667 439 667 q 266 634 316 667 q 180 559 217 602 l 180 993 l 115 979 l 115 36 q 218 4 162 17 q 338 -8 274 -8 q 460 13 403 -8 q 560 78 517 35 q 627 189 603 122 q 652 344 652 255 m 584 341 q 565 211 584 266 q 513 119 546 155 q 438 66 481 83 q 346 48 395 48 q 252 57 293 48 q 180 79 211 67 l 180 487 q 277 575 228 543 q 384 607 325 607 q 527 539 471 607 q 584 341 584 472 "},"D":{"x_min":139,"x_max":880,"ha":970,"o":"m 880 480 q 846 677 880 589 q 748 828 812 765 q 592 924 684 890 q 386 959 501 959 l 139 959 l 139 0 l 381 0 q 583 32 491 0 q 740 127 674 65 q 843 278 806 189 q 880 480 880 368 m 811 479 q 780 296 811 375 q 694 165 749 218 q 561 86 638 112 q 389 60 483 60 l 206 60 l 206 899 l 385 899 q 559 871 480 899 q 693 791 637 844 q 780 659 749 737 q 811 479 811 580 "},"z":{"x_min":64,"x_max":554.5625,"ha":621,"o":"m 554 0 l 546 54 l 140 54 l 549 604 l 549 653 l 89 653 l 97 599 l 472 599 l 64 49 l 64 0 l 554 0 "},"w":{"x_min":54.171875,"x_max":973.609375,"ha":1022,"o":"m 973 653 l 906 653 l 725 72 l 545 657 l 486 657 l 306 72 l 118 663 l 54 650 l 276 -7 l 336 -7 l 513 562 l 691 -7 l 751 -7 l 973 653 "},"$":{"x_min":88.953125,"x_max":657,"ha":754,"o":"m 476 935 l 492 1035 l 442 1048 q 440 1031 442 1048 q 435 995 438 1014 q 429 959 431 975 q 426 942 426 942 q 404 944 415 944 q 381 944 392 944 q 181 880 255 944 q 107 710 107 816 q 123 623 107 660 q 171 559 140 587 q 248 509 202 531 q 352 467 294 488 l 288 54 q 188 79 236 63 q 98 116 140 96 l 88 53 q 180 21 133 35 q 279 0 227 6 l 254 -161 l 302 -172 l 329 -4 q 345 -6 337 -6 q 362 -6 354 -6 q 483 12 429 -6 q 577 66 538 31 q 636 148 615 100 q 657 253 657 196 q 643 337 657 300 q 599 405 629 374 q 522 460 569 435 q 409 509 474 485 l 467 880 q 540 862 503 873 q 609 835 577 851 l 620 896 q 552 919 588 909 q 476 935 516 930 m 337 49 l 401 452 q 497 409 459 431 q 556 363 534 388 q 587 309 578 338 q 597 246 597 281 q 581 170 597 206 q 537 107 566 134 q 465 63 508 79 q 369 48 423 48 q 352 48 360 48 q 337 49 344 48 m 419 887 l 362 524 q 276 560 312 542 q 215 600 240 578 q 179 648 191 621 q 168 713 168 676 q 181 783 168 751 q 220 838 194 814 q 286 876 247 862 q 376 890 324 890 q 397 890 387 890 q 419 887 408 890 "},"™":{"x_min":55.890625,"x_max":989,"ha":1114,"o":"m 989 479 l 989 958 l 911 958 l 750 535 l 589 958 l 510 958 l 510 479 l 556 479 l 556 874 l 726 478 l 769 478 l 942 876 l 942 479 l 989 479 m 408 911 l 401 958 l 55 958 l 55 911 l 207 911 l 207 479 l 258 479 l 258 911 l 408 911 "},"\\":{"x_min":29.171875,"x_max":743.0625,"ha":696,"o":"m 743 -157 l 87 965 l 29 953 l 684 -169 l 743 -157 "},"’":{"x_min":75,"x_max":213.890625,"ha":294,"o":"m 213 959 l 129 959 l 75 669 l 111 661 l 213 959 "},"~":{"x_min":84.71875,"x_max":481.9375,"ha":567,"o":"m 481 446 l 434 456 q 380 381 415 381 q 345 390 363 381 q 293 417 326 399 q 234 446 256 436 q 183 456 212 456 q 121 422 147 456 q 84 325 95 389 l 131 315 q 186 391 150 391 q 221 382 202 391 q 273 354 240 374 q 331 326 309 335 q 383 317 354 317 q 445 350 419 317 q 481 446 470 383 "},"-":{"x_min":92,"x_max":425,"ha":517,"o":"m 425 357 l 425 426 l 92 426 l 92 357 l 425 357 "},"Q":{"x_min":90,"x_max":943,"ha":1037,"o":"m 943 480 q 911 681 943 589 q 822 838 879 772 q 688 940 766 903 q 517 977 609 977 q 347 940 426 977 q 211 837 269 903 q 121 679 153 771 q 90 478 90 587 q 112 300 90 378 q 175 164 134 222 q 274 64 216 105 q 401 -5 331 22 l 894 -202 l 905 -134 l 583 -9 q 730 43 663 2 q 844 148 797 84 q 917 297 891 212 q 943 480 943 382 m 874 476 q 848 298 874 379 q 775 160 822 218 q 663 70 729 102 q 517 39 597 39 q 372 70 438 39 q 259 161 306 102 q 185 300 211 219 q 159 479 159 380 q 184 657 159 576 q 257 796 210 739 q 369 885 303 853 q 515 917 435 917 q 660 885 594 917 q 773 794 726 853 q 847 655 821 736 q 874 476 874 573 "},"M":{"x_min":158,"x_max":1111,"ha":1268,"o":"m 1111 0 l 1111 958 l 991 958 l 634 81 l 278 958 l 158 958 l 158 0 l 215 0 l 215 862 l 605 -6 l 660 -6 l 1050 862 l 1050 0 l 1111 0 "},"C":{"x_min":90,"x_max":811.78125,"ha":902,"o":"m 811 80 l 802 144 q 673 70 743 98 q 524 42 603 42 q 373 74 440 42 q 258 165 306 107 q 184 304 210 223 q 159 480 159 385 q 184 656 159 576 q 258 794 210 736 q 374 885 306 853 q 528 917 443 917 q 661 892 599 917 q 784 823 724 867 l 796 893 q 675 954 742 931 q 530 977 607 977 q 351 940 432 977 q 212 837 270 903 q 121 679 153 771 q 90 478 90 587 q 121 275 90 366 q 210 119 153 184 q 346 18 267 54 q 518 -18 424 -18 q 682 10 607 -18 q 811 80 757 39 "},"[":{"x_min":146,"x_max":475.28125,"ha":563,"o":"m 475 -147 l 466 -93 l 210 -93 l 210 905 l 469 905 l 469 959 l 146 959 l 146 -147 l 475 -147 "},"L":{"x_min":139,"x_max":604.609375,"ha":646,"o":"m 604 0 l 594 60 l 206 60 l 206 959 l 139 959 l 139 0 l 604 0 "},"!":{"x_min":142,"x_max":225,"ha":367,"o":"m 213 959 l 155 959 l 155 249 l 213 257 l 213 959 m 225 0 l 225 113 l 142 113 l 142 0 l 225 0 "}," ":{"x_min":0,"x_max":0,"ha":319},"{":{"x_min":65.171875,"x_max":555.953125,"ha":643,"o":"m 555 -147 l 546 -93 l 440 -93 q 338 -60 368 -93 q 309 32 309 -27 q 318 127 309 75 q 327 225 327 179 q 287 350 327 311 q 186 404 248 389 l 186 407 q 287 460 248 421 q 327 585 327 499 q 318 682 327 631 q 309 777 309 734 q 340 870 309 836 q 442 905 371 905 l 549 905 l 549 959 l 444 959 q 293 911 341 959 q 246 775 246 864 q 254 680 246 727 q 263 583 263 633 q 218 463 263 496 q 106 431 174 431 l 65 431 l 72 380 l 106 380 q 218 346 173 380 q 263 226 263 313 q 254 128 263 175 q 246 33 246 82 q 293 -101 246 -55 q 444 -147 341 -147 l 555 -147 "},"X":{"x_min":62.5,"x_max":815.28125,"ha":882,"o":"m 402 501 l 62 0 l 134 0 l 440 454 l 752 -6 l 815 6 l 476 500 l 787 959 l 715 959 l 440 549 l 155 964 l 93 950 l 402 501 "},"P":{"x_min":139,"x_max":667,"ha":736,"o":"m 667 694 q 583 890 667 821 q 361 959 500 959 l 139 959 l 139 0 l 206 0 l 206 417 l 339 417 q 469 435 408 417 q 573 487 529 453 q 642 574 617 522 q 667 694 667 626 m 598 692 q 529 530 598 583 q 342 477 461 477 l 206 477 l 206 899 l 356 899 q 536 846 474 899 q 598 692 598 794 "},"%":{"x_min":94,"x_max":1105,"ha":1199,"o":"m 504 696 q 488 800 504 754 q 445 880 473 847 q 380 931 417 913 q 299 950 342 950 q 217 931 255 950 q 152 880 180 913 q 109 800 124 847 q 94 696 94 754 q 109 590 94 637 q 152 510 124 543 q 217 460 180 478 q 299 442 255 442 q 380 460 342 442 q 445 510 417 478 q 488 590 473 543 q 504 696 504 637 m 925 936 l 872 948 l 270 2 l 323 -9 l 925 936 m 443 696 q 405 550 443 608 q 301 493 367 493 q 193 550 232 493 q 155 696 155 608 q 164 776 155 739 q 192 841 174 814 q 237 883 210 868 q 298 899 264 899 q 358 883 331 899 q 403 841 384 868 q 432 776 422 814 q 443 696 443 739 m 1105 243 q 1089 347 1105 301 q 1046 427 1074 394 q 981 478 1018 460 q 900 497 943 497 q 818 478 856 497 q 753 427 781 460 q 710 347 725 394 q 695 243 695 301 q 710 137 695 184 q 753 57 725 90 q 818 7 781 25 q 900 -11 856 -11 q 981 7 943 -11 q 1046 57 1018 25 q 1089 137 1074 90 q 1105 243 1105 184 m 1044 243 q 1006 97 1044 155 q 902 40 968 40 q 794 97 833 40 q 756 243 756 155 q 765 323 756 286 q 793 388 775 361 q 838 430 811 415 q 899 446 865 446 q 959 430 932 446 q 1004 388 985 415 q 1033 323 1023 361 q 1044 243 1044 286 "},"#":{"x_min":64,"x_max":821,"ha":885,"o":"m 270 258 l 547 258 l 505 -3 l 559 -3 l 601 258 l 791 258 l 783 314 l 609 314 l 658 623 l 821 623 l 821 680 l 668 680 l 708 937 l 655 948 l 612 680 l 337 680 l 377 941 l 325 941 l 283 680 l 93 680 l 101 623 l 275 623 l 226 314 l 64 314 l 64 258 l 216 258 l 176 0 l 229 -10 l 270 258 m 327 623 l 604 623 l 555 314 l 280 314 l 327 623 "},"_":{"x_min":4,"x_max":657,"ha":661,"o":"m 657 -147 l 657 -90 l 4 -90 l 4 -147 l 657 -147 "},"+":{"x_min":83,"x_max":705,"ha":788,"o":"m 705 443 l 705 496 l 423 496 l 423 781 l 366 781 l 366 496 l 83 496 l 83 443 l 366 443 l 366 158 l 423 158 l 423 443 l 705 443 "},"":{"x_min":69,"x_max":894,"ha":963,"o":"m 894 -278 l 894 1002 l 754 1002 l 713 1111 l 249 1111 l 208 1002 l 69 1002 l 69 232 q 101 218 88 232 q 113 187 113 205 q 101 155 113 168 q 69 143 88 143 l 69 -278 l 356 -278 l 367 -259 l 593 -259 l 604 -278 l 894 -278 m 555 782 l 635 782 l 635 763 l 576 763 l 576 671 l 628 671 l 628 651 l 576 651 l 576 542 l 555 542 l 555 782 m 255 782 l 276 782 l 276 672 l 341 672 l 341 782 l 362 782 l 362 543 l 341 543 l 341 653 l 276 653 l 276 543 l 255 543 l 255 782 m 638 547 l 638 569 q 652 563 644 566 q 666 561 660 561 q 689 591 689 561 l 689 782 l 711 782 l 711 591 q 667 542 711 542 q 651 543 660 542 q 638 547 642 544 m 726 449 l 737 449 l 737 415 l 766 449 l 780 449 l 755 420 l 781 385 l 769 385 l 747 413 l 737 403 l 737 385 l 726 385 l 726 449 m 677 406 l 660 406 l 660 385 l 650 385 l 650 449 l 678 449 q 695 442 689 449 q 701 429 701 436 q 687 408 701 413 l 703 385 l 691 385 l 677 406 m 591 383 q 568 392 576 383 q 559 416 559 402 q 568 439 559 429 q 591 450 576 450 q 615 439 606 450 q 625 416 625 429 q 615 392 625 402 q 591 383 606 383 m 513 417 l 531 449 l 544 449 l 519 408 l 519 385 l 508 385 l 508 408 l 482 449 l 495 449 l 513 417 m 268 449 l 313 449 l 313 439 l 279 439 l 279 422 l 309 422 l 309 413 l 279 413 l 279 395 l 313 395 l 313 385 l 268 385 l 268 449 m 183 449 l 193 449 l 227 404 l 227 449 l 239 449 l 239 385 l 229 385 l 194 429 l 194 385 l 183 385 l 183 449 m 334 449 l 345 449 l 359 400 l 360 400 l 375 449 l 386 449 l 400 400 l 402 400 l 416 449 l 427 449 l 407 383 l 396 383 l 381 431 l 380 431 l 366 383 l 355 383 l 334 449 m 453 665 q 474 709 474 687 q 469 728 474 720 q 456 735 464 735 q 442 728 448 735 q 437 709 437 720 q 441 688 437 698 q 453 665 446 679 m 474 587 l 446 641 q 426 595 426 620 q 432 569 426 580 q 449 558 438 558 q 464 567 456 558 q 474 587 471 576 m 677 415 q 690 427 690 415 q 676 439 690 439 l 661 439 l 661 415 l 677 415 m 590 393 q 606 399 600 393 q 613 416 613 406 q 606 432 613 424 q 590 440 600 440 q 575 432 581 440 q 570 416 570 424 q 575 399 570 406 q 590 393 581 393 m 484 608 q 490 628 487 617 q 496 649 494 639 l 515 645 q 507 617 512 630 q 496 591 502 603 l 519 550 l 503 538 l 487 572 l 485 572 q 471 549 480 559 q 448 538 461 538 q 416 553 428 538 q 405 592 405 569 q 437 655 405 630 q 423 682 428 671 q 417 709 417 694 q 427 738 417 725 q 456 752 438 752 q 484 738 475 752 q 494 709 494 725 q 484 678 494 693 q 461 651 475 664 l 484 608 "},"‚":{"x_min":65.28125,"x_max":204.171875,"ha":294,"o":"m 204 113 l 119 113 l 65 -176 l 101 -184 l 204 113 "},")":{"x_min":74.78125,"x_max":440.0625,"ha":544,"o":"m 440 440 q 417 609 440 530 q 356 756 395 687 q 262 886 316 825 q 144 1004 208 947 l 74 990 q 293 737 215 869 q 372 441 372 605 q 297 146 372 270 q 76 -79 223 22 l 88 -140 q 351 112 262 -29 q 440 440 440 254 "},"'":{"x_min":104.171875,"x_max":190.28125,"ha":294,"o":"m 190 939 l 104 939 l 129 690 l 165 683 l 190 939 "},"}":{"x_min":87.0625,"x_max":576.84375,"ha":642,"o":"m 576 381 l 569 432 l 535 432 q 424 465 468 432 q 380 585 380 498 q 388 682 380 635 q 397 778 397 729 q 349 913 397 867 q 198 959 301 959 l 87 959 l 96 905 l 202 905 q 304 872 274 905 q 334 779 334 839 q 325 684 334 736 q 316 586 316 632 q 355 460 316 500 q 456 407 394 420 l 456 404 q 355 351 394 390 q 316 226 316 312 q 325 129 316 180 q 334 34 334 77 q 302 -58 334 -24 q 200 -93 271 -93 l 94 -93 l 94 -147 l 198 -147 q 349 -99 301 -147 q 397 36 397 -52 q 388 130 397 84 q 380 228 380 176 q 423 348 380 315 q 535 381 467 381 l 576 381 "},"‰":{"x_min":85,"x_max":1041,"ha":1127,"o":"m 1041 479 q 1006 678 1041 587 q 910 836 972 769 q 758 940 847 903 q 561 977 670 977 q 365 940 453 977 q 214 836 276 903 q 119 678 153 769 q 85 479 85 587 q 119 280 85 371 q 216 122 153 189 q 367 18 279 55 q 564 -18 456 -18 q 761 18 672 -18 q 911 122 849 55 q 1007 280 974 189 q 1041 479 1041 371 m 1003 479 q 972 292 1003 377 q 885 145 941 206 q 748 49 829 84 q 565 15 666 15 q 382 49 464 15 q 243 145 300 84 q 155 292 186 206 q 124 479 124 377 q 154 666 124 581 q 241 813 185 752 q 378 909 297 874 q 561 944 460 944 q 744 909 662 944 q 882 813 825 874 q 971 666 940 752 q 1003 479 1003 581 m 603 454 q 693 507 657 470 q 729 607 729 544 q 681 719 729 678 q 555 760 634 760 l 411 760 l 411 213 l 467 213 l 467 448 l 544 448 l 719 209 l 780 220 l 603 454 m 554 707 q 641 680 611 707 q 671 605 671 654 q 637 526 671 554 q 544 499 603 499 l 467 499 l 467 707 l 554 707 "},"a":{"x_min":72,"x_max":561,"ha":668,"o":"m 561 0 l 561 472 q 508 616 561 567 q 355 666 455 666 q 233 649 290 666 q 120 608 176 633 l 129 547 q 239 590 183 575 q 352 606 295 606 q 459 572 420 606 q 497 469 497 539 l 497 412 q 297 381 379 401 q 166 330 216 361 q 94 256 116 298 q 72 159 72 213 q 87 82 72 115 q 129 28 102 49 q 192 -3 156 6 q 269 -14 227 -14 q 390 14 331 -14 q 499 87 448 42 l 515 0 l 561 0 m 497 147 q 384 71 444 99 q 272 42 325 42 q 177 72 216 42 q 139 165 139 102 q 157 236 139 205 q 216 291 175 268 q 327 330 258 314 q 497 358 395 347 l 497 147 "},"T":{"x_min":51,"x_max":744.515625,"ha":786,"o":"m 744 899 l 736 959 l 51 959 l 51 899 l 365 899 l 365 0 l 432 0 l 432 899 l 744 899 "},"—":{"x_min":86,"x_max":1185,"ha":1271,"o":"m 1185 360 l 1185 425 l 86 425 l 86 360 l 1185 360 "},"=":{"x_min":111,"x_max":743,"ha":854,"o":"m 743 590 l 743 650 l 111 650 l 111 590 l 743 590 m 743 289 l 743 349 l 111 349 l 111 289 l 743 289 "},"N":{"x_min":139,"x_max":843,"ha":982,"o":"m 843 0 l 843 959 l 779 959 l 779 125 l 207 959 l 139 959 l 139 0 l 203 0 l 203 857 l 790 0 l 843 0 "},"2":{"x_min":76,"x_max":650.734375,"ha":744,"o":"m 650 0 l 642 56 l 164 56 l 471 386 q 545 472 514 432 q 595 550 575 512 q 625 627 616 589 q 634 709 634 665 q 565 888 634 820 q 370 957 496 957 q 218 927 285 957 q 99 854 152 897 l 110 786 q 230 867 167 835 q 367 899 293 899 q 512 847 459 899 q 566 705 566 796 q 559 637 566 669 q 535 571 552 604 q 490 500 518 537 q 420 418 461 464 l 76 44 l 76 0 l 650 0 "},"j":{"x_min":1.390625,"x_max":213,"ha":313,"o":"m 213 887 q 196 926 213 910 q 157 943 180 943 q 116 926 133 943 q 100 887 100 910 q 116 847 100 864 q 157 830 133 830 q 196 847 180 830 q 213 887 213 864 m 189 -115 l 189 653 l 125 653 l 125 -108 q 105 -170 125 -152 q 51 -189 86 -189 q 27 -189 37 -189 q 1 -184 16 -189 l 11 -244 q 35 -247 20 -247 q 61 -247 50 -247 q 151 -216 113 -247 q 189 -115 189 -185 "},"Z":{"x_min":90,"x_max":761.9375,"ha":847,"o":"m 761 0 l 753 56 l 171 56 l 755 914 l 755 958 l 120 958 l 128 902 l 673 902 l 90 44 l 90 0 l 761 0 "},"u":{"x_min":107,"x_max":607,"ha":722,"o":"m 607 0 l 607 653 l 542 653 l 542 164 q 423 75 479 105 q 312 46 366 46 q 206 84 241 46 q 172 198 172 123 l 172 653 l 107 653 l 107 193 q 155 40 107 94 q 305 -14 204 -14 q 427 16 371 -14 q 543 98 483 46 l 559 0 l 607 0 "},"1":{"x_min":48.328125,"x_max":330,"ha":491,"o":"m 330 0 l 330 945 l 282 945 l 48 838 l 58 782 l 265 869 l 265 0 l 330 0 "},"›":{"x_min":83.328125,"x_max":362.5,"ha":422,"o":"m 362 325 l 129 660 l 86 648 l 280 325 l 83 0 l 131 0 l 362 325 "},"k":{"x_min":115,"x_max":603.609375,"ha":630,"o":"m 603 6 l 253 359 l 581 653 l 492 653 l 180 366 l 180 993 l 115 979 l 115 0 l 180 0 l 180 350 l 532 -9 l 603 6 "},"<":{"x_min":81,"x_max":680,"ha":790,"o":"m 680 130 l 680 195 l 149 471 l 680 744 l 680 808 l 81 496 l 81 443 l 680 130 "},"t":{"x_min":44,"x_max":387.78125,"ha":449,"o":"m 387 2 l 378 55 q 347 49 366 52 q 312 45 328 45 q 234 68 258 45 q 210 148 210 90 l 210 597 l 378 597 l 369 653 l 210 653 l 210 898 l 145 885 l 145 653 l 44 653 l 44 597 l 145 597 l 145 137 q 187 22 145 55 q 299 -11 229 -11 q 351 -6 326 -11 q 387 2 375 -2 "},"W":{"x_min":76.390625,"x_max":1359.71875,"ha":1435,"o":"m 1359 959 l 1293 959 l 1038 98 l 752 959 l 681 959 l 401 98 l 143 968 l 76 953 l 366 -3 l 426 -3 l 715 867 l 1008 -3 l 1069 -3 l 1359 959 "},"v":{"x_min":48.609375,"x_max":601.390625,"ha":650,"o":"m 601 653 l 533 653 l 325 72 l 113 659 l 48 646 l 293 -7 l 352 -7 l 601 653 "},">":{"x_min":110,"x_max":709,"ha":790,"o":"m 709 443 l 709 496 l 110 808 l 110 743 l 642 468 l 110 194 l 110 130 l 709 443 "},"s":{"x_min":66.5625,"x_max":530,"ha":602,"o":"m 530 172 q 473 298 530 254 q 305 373 416 343 q 183 424 217 397 q 150 497 150 451 q 185 574 150 542 q 298 606 220 606 q 481 558 389 606 l 492 621 q 404 653 452 640 q 301 666 356 666 q 212 652 252 666 q 144 616 173 639 q 101 562 116 593 q 86 493 86 531 q 133 377 86 418 q 285 308 181 336 q 373 279 338 293 q 428 248 407 265 q 457 211 449 231 q 466 166 466 191 q 422 77 466 108 q 305 47 378 47 q 182 65 240 47 q 79 110 124 84 l 66 47 q 171 6 110 23 q 298 -11 231 -11 q 465 36 400 -11 q 530 172 530 83 "},"B":{"x_min":139,"x_max":681,"ha":763,"o":"m 681 272 q 628 428 681 371 q 485 508 575 485 q 594 592 551 536 q 638 726 638 647 q 565 895 638 832 q 353 959 493 959 l 139 959 l 139 0 l 353 0 q 485 18 425 0 q 588 70 544 36 q 656 156 632 105 q 681 272 681 207 m 569 724 q 556 649 569 685 q 515 587 542 614 q 447 546 487 561 q 351 530 406 530 l 206 530 l 206 899 l 350 899 q 514 853 458 899 q 569 724 569 807 m 612 265 q 544 114 612 169 q 358 60 475 60 l 206 60 l 206 474 l 353 474 q 458 462 411 474 q 540 424 506 450 q 594 359 575 398 q 612 265 612 319 "},"…":{"x_min":112,"x_max":815,"ha":926,"o":"m 815 0 l 815 113 l 730 113 l 730 0 l 815 0 m 504 0 l 504 113 l 421 113 l 421 0 l 504 0 m 195 0 l 195 113 l 112 113 l 112 0 l 195 0 "},"?":{"x_min":68,"x_max":589,"ha":670,"o":"m 589 749 q 569 844 589 801 q 514 915 550 886 q 431 961 479 945 q 326 977 383 977 q 183 951 250 977 q 68 887 116 925 l 77 823 q 195 892 133 868 q 323 917 256 917 q 468 871 415 917 q 520 746 520 825 q 510 678 520 710 q 474 617 500 647 q 406 556 449 587 q 295 490 362 525 l 279 478 l 279 247 l 339 257 l 339 450 q 446 512 401 482 q 523 578 491 543 q 572 655 555 614 q 589 749 589 696 m 351 0 l 351 113 l 268 113 l 268 0 l 351 0 "},"H":{"x_min":139,"x_max":843,"ha":982,"o":"m 843 0 l 843 959 l 776 959 l 776 532 l 206 532 l 206 959 l 139 959 l 139 0 l 206 0 l 206 472 l 776 472 l 776 0 l 843 0 "},"c":{"x_min":72,"x_max":578.953125,"ha":644,"o":"m 578 65 l 570 126 q 469 62 519 81 q 366 42 419 42 q 268 64 310 42 q 197 123 226 86 q 154 213 169 161 q 140 326 140 265 q 155 441 140 389 q 198 530 170 493 q 267 589 226 568 q 360 610 308 610 q 465 589 417 610 q 562 528 513 569 l 574 594 q 478 646 531 626 q 363 666 426 666 q 249 644 302 666 q 157 578 197 621 q 94 471 117 534 q 72 326 72 407 q 94 182 72 245 q 155 75 116 119 q 247 8 194 31 q 359 -14 299 -14 q 480 6 426 -14 q 578 65 534 27 "},"&":{"x_min":72,"x_max":919.234375,"ha":951,"o":"m 919 8 l 717 212 q 782 361 755 278 q 827 546 809 444 l 762 560 q 726 389 748 464 q 673 257 703 315 l 380 558 q 297 662 322 618 q 272 761 272 705 q 316 869 272 825 q 441 913 360 913 q 647 843 537 913 l 662 911 q 558 956 612 940 q 444 973 504 973 q 344 956 388 973 q 268 911 300 939 q 220 843 237 882 q 203 757 203 803 q 228 644 203 692 q 306 539 254 596 q 213 489 256 517 q 139 425 170 461 q 90 346 108 390 q 72 245 72 301 q 92 143 72 190 q 151 61 113 95 q 244 6 190 26 q 366 -14 299 -14 q 683 157 558 -14 l 848 -8 l 919 8 m 640 201 q 515 83 585 121 q 366 46 445 46 q 275 61 316 46 q 203 103 234 76 q 156 168 173 130 q 140 248 140 205 q 195 394 140 333 q 351 494 251 455 l 640 201 "},"I":{"x_min":150,"x_max":217,"ha":367,"o":"m 217 0 l 217 959 l 150 959 l 150 0 l 217 0 "},"•":{"x_min":143.0625,"x_max":430.5625,"ha":574,"o":"m 430 486 l 411 621 l 287 643 l 163 621 l 143 486 l 163 351 l 287 327 l 411 351 l 430 486 "},"G":{"x_min":90,"x_max":836,"ha":960,"o":"m 836 82 l 836 487 l 520 487 l 530 427 l 769 427 l 769 112 q 659 60 716 78 q 530 42 602 42 q 375 73 443 42 q 258 163 306 105 q 184 301 210 221 q 159 479 159 382 q 184 657 159 576 q 257 796 210 739 q 370 885 304 853 q 518 917 436 917 q 666 891 600 917 q 785 821 731 865 l 798 893 q 673 955 742 933 q 520 977 603 977 q 346 940 426 977 q 210 837 267 903 q 121 679 153 771 q 90 478 90 587 q 121 277 90 368 q 209 120 152 186 q 347 18 266 54 q 527 -18 427 -18 q 692 8 619 -18 q 836 82 765 34 "},"(":{"x_min":104,"x_max":469.28125,"ha":544,"o":"m 469 -120 q 250 132 329 0 q 172 427 172 264 q 245 723 172 598 q 467 949 319 847 l 455 1010 q 192 757 281 899 q 104 429 104 615 q 126 260 104 339 q 188 113 148 182 q 281 -17 227 44 q 399 -134 335 -79 l 469 -120 "},"`":{"x_min":187.5,"x_max":427.78125,"ha":635,"o":"m 427 767 l 283 982 l 187 961 l 379 767 l 427 767 "},"U":{"x_min":118,"x_max":818,"ha":936,"o":"m 818 361 l 818 959 l 751 959 l 751 357 q 732 229 751 286 q 677 131 713 172 q 588 68 641 90 q 468 46 535 46 q 345 69 398 46 q 257 134 293 93 q 203 234 221 176 q 185 364 185 293 l 185 959 l 118 959 l 118 354 q 141 206 118 273 q 209 89 165 138 q 318 13 254 40 q 465 -14 383 -14 q 613 13 548 -14 q 724 89 679 40 q 793 208 769 138 q 818 361 818 277 "},"◊":{"x_min":99.046875,"x_max":989,"ha":1114,"o":"m 989 479 l 989 958 l 911 958 l 750 535 l 589 958 l 510 958 l 510 479 l 556 479 l 556 875 l 726 478 l 769 478 l 942 876 l 942 479 l 989 479 m 228 472 q 286 481 259 472 q 336 506 314 490 q 370 548 357 523 q 383 605 383 573 q 351 690 383 659 q 256 749 320 721 q 176 793 200 773 q 153 847 153 813 q 177 900 153 879 q 242 921 201 921 q 297 913 271 921 q 350 890 324 905 l 359 937 q 306 957 335 949 q 243 965 277 965 q 146 930 186 965 q 106 844 106 896 q 113 798 106 817 q 137 763 121 778 q 178 733 153 748 q 239 703 203 719 q 311 660 288 683 q 334 602 334 638 q 302 538 334 560 q 231 516 271 516 q 161 526 190 516 q 104 553 132 536 l 99 503 q 156 481 124 491 q 228 472 188 472 "},"F":{"x_min":139,"x_max":604.609375,"ha":663,"o":"m 604 899 l 604 959 l 139 959 l 139 0 l 206 0 l 206 457 l 539 457 l 529 517 l 206 517 l 206 899 l 604 899 "},"r":{"x_min":115,"x_max":424.4375,"ha":461,"o":"m 424 604 l 413 667 q 338 653 373 667 q 274 618 303 640 q 220 570 245 597 q 178 516 196 544 l 157 653 l 115 653 l 115 0 l 180 0 l 180 429 q 221 493 196 462 q 278 548 246 524 q 347 588 310 573 q 424 604 384 604 "},":":{"x_min":111,"x_max":194,"ha":305,"o":"m 194 542 l 194 653 l 111 653 l 111 542 l 194 542 m 194 0 l 194 113 l 111 113 l 111 0 l 194 0 "},"x":{"x_min":55.5625,"x_max":594.4375,"ha":650,"o":"m 594 5 l 361 339 l 583 653 l 511 653 l 325 386 l 134 664 l 69 647 l 288 336 l 55 0 l 127 0 l 323 288 l 530 -9 l 594 5 "},"*":{"x_min":76.71875,"x_max":493.671875,"ha":570,"o":"m 493 807 l 488 825 l 302 784 l 302 969 l 267 969 l 267 784 l 82 825 l 76 807 l 244 738 l 148 577 l 164 567 l 285 711 l 406 567 l 421 577 l 324 738 l 493 807 "},"†":{"x_min":78,"x_max":614,"ha":692,"o":"m 374 800 l 374 958 l 318 958 l 318 800 l 336 666 l 354 666 l 374 800 m 614 593 l 614 649 l 533 649 l 393 629 l 393 613 l 533 593 l 614 593 m 299 613 l 299 629 l 157 649 l 78 649 l 78 593 l 157 593 l 299 613 m 373 -21 l 373 452 l 354 576 l 336 576 l 320 452 l 320 -21 l 339 -163 l 352 -163 l 373 -21 "},"V":{"x_min":65.28125,"x_max":883.328125,"ha":949,"o":"m 883 958 l 813 958 l 473 74 l 130 967 l 65 952 l 441 -6 l 502 -6 l 883 958 "},"h":{"x_min":115,"x_max":615,"ha":722,"o":"m 615 0 l 615 462 q 566 613 615 560 q 416 667 517 667 q 295 637 350 667 q 180 555 239 607 l 180 993 l 115 979 l 115 0 l 180 0 l 180 488 q 298 577 242 547 q 409 607 355 607 q 515 568 480 607 q 550 454 550 529 l 550 0 l 615 0 "},"0":{"x_min":93,"x_max":758.0625,"ha":851,"o":"m 758 470 q 735 667 758 577 q 670 821 713 756 q 566 921 627 886 q 426 957 505 957 q 285 920 347 957 q 181 820 223 884 q 115 665 138 755 q 93 468 93 575 q 115 271 93 361 q 180 117 137 182 q 284 17 223 52 q 424 -18 345 -18 q 565 18 503 -18 q 669 118 627 54 q 735 272 712 183 q 758 470 758 362 m 690 469 q 673 298 690 377 q 623 162 656 219 q 540 72 590 105 q 426 40 491 40 q 310 72 360 40 q 227 162 261 105 q 177 298 194 219 q 161 469 161 377 q 177 640 161 561 q 227 776 194 719 q 310 866 261 833 q 426 899 360 899 q 540 866 491 899 q 623 776 590 833 q 673 640 656 719 q 690 469 690 561 "},".":{"x_min":106,"x_max":189,"ha":295,"o":"m 189 0 l 189 113 l 106 113 l 106 0 l 189 0 "},"”":{"x_min":75,"x_max":433.328125,"ha":514,"o":"m 213 959 l 129 959 l 75 669 l 111 661 l 213 959 m 433 959 l 348 959 l 294 669 l 330 661 l 433 959 "},"@":{"x_min":83,"x_max":1086,"ha":1174,"o":"m 693 274 q 586 161 630 196 q 502 127 542 127 q 438 161 463 127 q 413 263 413 196 q 431 385 413 331 q 481 476 450 438 q 553 533 513 513 q 638 554 594 554 q 688 548 666 554 q 733 531 709 542 l 693 274 m 689 204 q 728 110 689 146 q 837 74 767 74 q 929 97 884 74 q 1009 168 974 121 q 1065 283 1044 215 q 1086 442 1086 352 q 1057 617 1086 539 q 974 750 1029 695 q 838 835 919 805 q 653 865 758 865 q 428 819 533 865 q 246 694 323 774 q 126 500 170 613 q 83 252 83 387 q 198 -79 83 35 q 524 -195 313 -195 q 695 -176 615 -195 q 833 -128 776 -157 l 827 -94 q 691 -143 768 -126 q 530 -160 613 -160 q 232 -55 341 -160 q 123 253 123 48 q 163 489 123 382 q 275 671 204 595 q 442 788 346 746 q 649 830 538 830 q 945 726 844 830 q 1047 441 1047 623 q 1029 298 1047 359 q 984 195 1012 236 q 920 132 956 153 q 845 112 883 112 q 768 141 791 112 q 746 210 746 170 q 747 250 746 234 q 751 278 748 267 l 795 566 q 724 593 763 581 q 642 605 684 605 q 532 580 584 605 q 440 509 480 555 q 377 400 400 463 q 355 260 355 337 q 394 124 355 173 q 493 76 434 76 q 591 109 546 76 q 689 204 635 142 "},"f":{"x_min":51,"x_max":372.9375,"ha":399,"o":"m 372 931 l 363 993 q 343 995 353 995 q 320 995 335 995 q 195 952 238 995 q 152 824 152 909 l 152 654 l 51 654 l 51 598 l 152 598 l 152 0 l 216 0 l 216 598 l 363 598 l 353 654 l 216 654 l 216 820 q 244 907 216 881 q 322 934 272 934 q 352 934 342 934 q 372 931 363 934 "},";":{"x_min":39.84375,"x_max":202,"ha":305,"o":"m 202 542 l 202 653 l 119 653 l 119 542 l 202 542 m 197 113 l 113 113 l 39 -176 l 74 -184 l 197 113 "},"“":{"x_min":80.5625,"x_max":438.890625,"ha":514,"o":"m 219 956 l 183 964 l 80 667 l 165 667 l 219 956 m 438 956 l 402 964 l 300 667 l 384 667 l 438 956 "},"i":{"x_min":100,"x_max":213,"ha":313,"o":"m 213 886 q 196 925 213 909 q 157 942 180 942 q 116 925 133 942 q 100 886 100 909 q 116 846 100 863 q 157 829 133 829 q 196 846 180 829 q 213 886 213 863 m 189 0 l 189 653 l 125 653 l 125 0 l 189 0 "},"6":{"x_min":97,"x_max":715,"ha":794,"o":"m 168 463 q 580 895 209 787 l 570 959 q 375 875 462 926 q 225 754 287 824 q 130 590 163 683 q 97 380 97 497 q 121 217 97 290 q 188 91 145 144 q 290 10 231 38 q 420 -18 349 -18 q 537 3 483 -18 q 630 63 591 25 q 692 158 670 102 q 715 283 715 213 q 694 396 715 345 q 637 483 674 448 q 549 538 601 519 q 434 558 497 558 q 298 533 363 558 q 168 463 233 509 m 164 395 q 289 470 223 440 q 427 500 354 500 q 522 483 482 500 q 590 437 562 466 q 632 368 618 408 q 646 280 646 327 q 630 182 646 226 q 586 105 615 137 q 515 56 557 73 q 422 38 473 38 q 318 64 365 38 q 236 136 270 90 q 183 245 202 182 q 164 384 164 309 l 164 395 "},"A":{"x_min":65.28125,"x_max":898.609375,"ha":964,"o":"m 898 5 l 518 964 l 445 964 l 65 0 l 134 0 l 261 328 l 700 328 l 831 -9 l 898 5 m 677 388 l 286 388 l 480 889 l 677 388 "},"‘":{"x_min":80.5625,"x_max":219.4375,"ha":294,"o":"m 219 956 l 183 964 l 80 667 l 165 667 l 219 956 "},"n":{"x_min":115,"x_max":615,"ha":722,"o":"m 615 0 l 615 459 q 566 612 615 558 q 416 667 517 667 q 294 637 350 667 q 178 554 238 607 l 162 653 l 115 653 l 115 0 l 180 0 l 180 488 q 298 577 242 547 q 409 607 355 607 q 515 568 480 607 q 550 454 550 529 l 550 0 l 615 0 "},"O":{"x_min":90,"x_max":943,"ha":1033,"o":"m 943 480 q 911 680 943 589 q 822 838 879 772 q 688 940 766 903 q 517 977 609 977 q 347 940 426 977 q 211 837 269 903 q 121 679 153 771 q 90 478 90 587 q 121 278 90 369 q 210 120 153 186 q 344 18 266 55 q 515 -18 423 -18 q 685 18 606 -18 q 821 121 763 55 q 911 279 879 187 q 943 480 943 371 m 874 478 q 848 302 874 382 q 775 164 822 222 q 662 73 727 105 q 517 42 597 42 q 372 73 438 42 q 259 164 306 105 q 185 303 211 222 q 159 480 159 383 q 184 656 159 576 q 257 794 210 736 q 370 885 305 853 q 515 917 435 917 q 660 885 594 917 q 773 794 726 853 q 847 655 821 736 q 874 478 874 575 "},"3":{"x_min":75.21875,"x_max":639.0625,"ha":738,"o":"m 639 251 q 583 412 639 353 q 436 500 528 472 q 505 531 472 513 q 564 578 539 550 q 605 642 590 606 q 621 726 621 679 q 603 816 621 773 q 553 889 586 858 q 470 938 519 920 q 355 957 421 957 q 209 933 273 957 q 90 871 144 909 l 98 807 q 215 873 153 847 q 353 899 278 899 q 502 849 451 899 q 553 724 553 800 q 487 581 553 635 q 294 527 421 527 l 237 527 l 244 467 l 284 467 q 501 407 432 467 q 571 250 571 347 q 554 165 571 204 q 507 99 537 127 q 433 56 476 72 q 336 40 390 40 q 204 60 261 40 q 86 122 147 80 l 75 55 q 189 2 123 23 q 333 -18 254 -18 q 455 2 398 -18 q 552 58 511 22 q 616 143 593 94 q 639 251 639 193 "},"]":{"x_min":87.71875,"x_max":417,"ha":563,"o":"m 417 -147 l 417 959 l 87 959 l 97 905 l 353 905 l 353 -93 l 94 -93 l 94 -147 l 417 -147 "},"m":{"x_min":115,"x_max":1034,"ha":1141,"o":"m 1034 0 l 1034 462 q 987 613 1034 560 q 839 667 941 667 q 715 634 773 667 q 595 548 658 602 q 534 637 579 607 q 412 667 490 667 q 292 637 348 667 q 178 558 237 608 l 162 653 l 115 653 l 115 0 l 180 0 l 180 493 q 296 577 241 548 q 405 607 352 607 q 509 568 476 607 q 543 454 543 529 l 543 0 l 607 0 l 607 491 q 724 577 669 548 q 831 607 778 607 q 935 568 902 607 q 969 454 969 529 l 969 0 l 1034 0 "},"9":{"x_min":81,"x_max":698,"ha":795,"o":"m 626 460 q 496 193 602 300 q 200 42 391 86 l 211 -20 q 413 60 324 10 q 566 182 503 110 q 663 348 629 254 q 698 559 698 442 q 674 721 698 648 q 608 848 650 795 q 506 929 565 900 q 375 957 447 957 q 252 934 307 957 q 159 869 197 910 q 101 773 121 828 q 81 654 81 718 q 101 535 81 588 q 159 445 122 482 q 247 389 196 408 q 361 370 299 370 q 496 392 432 370 q 626 460 560 415 m 633 529 q 505 455 573 483 q 368 428 436 428 q 205 492 261 428 q 149 657 149 557 q 164 754 149 710 q 208 832 179 799 q 279 882 238 864 q 375 901 321 901 q 477 875 431 901 q 559 805 524 850 q 613 696 594 760 q 633 554 633 632 l 633 529 "},"l":{"x_min":125,"x_max":189,"ha":314,"o":"m 189 0 l 189 993 l 125 979 l 125 0 l 189 0 "},"8":{"x_min":92,"x_max":704.0625,"ha":796,"o":"m 439 512 q 321 556 368 534 q 247 604 274 579 q 209 659 220 630 q 198 726 198 688 q 211 789 198 758 q 250 845 224 820 q 316 884 277 869 q 404 900 354 900 q 488 886 450 900 q 552 850 525 873 q 594 794 579 826 q 608 725 608 762 q 563 604 608 658 q 439 512 518 550 m 363 476 q 494 425 442 450 q 578 372 547 400 q 622 313 609 345 q 636 240 636 280 q 617 157 636 194 q 565 93 598 119 q 490 53 533 68 q 402 38 448 38 q 304 52 348 38 q 228 93 259 66 q 178 156 196 119 q 160 237 160 193 q 215 377 160 316 q 363 476 269 437 m 300 498 q 147 388 202 452 q 92 233 92 323 q 114 134 92 180 q 176 54 136 88 q 273 1 216 20 q 400 -18 330 -18 q 519 0 463 -18 q 615 54 574 19 q 680 136 656 88 q 704 240 704 183 q 650 393 704 332 q 502 490 597 454 q 571 535 539 511 q 627 588 603 559 q 663 653 650 618 q 677 730 677 688 q 657 818 677 777 q 602 890 638 859 q 517 938 567 920 q 407 957 467 957 q 295 938 346 957 q 208 889 245 920 q 150 816 171 858 q 129 725 129 773 q 178 584 129 638 q 300 498 227 529 "},"p":{"x_min":115,"x_max":655.0625,"ha":730,"o":"m 655 344 q 633 487 655 426 q 575 588 612 548 q 489 647 538 628 q 386 667 441 667 q 267 634 316 667 q 178 558 218 602 l 162 653 l 115 653 l 115 -251 l 180 -237 l 180 25 q 262 1 218 10 q 355 -8 306 -8 q 468 13 414 -8 q 564 78 523 35 q 630 189 606 122 q 655 344 655 255 m 587 341 q 568 212 587 266 q 519 120 550 157 q 445 66 488 83 q 353 48 402 48 q 261 59 305 48 q 180 89 218 69 l 180 487 q 277 575 228 543 q 385 607 325 607 q 530 539 473 607 q 587 341 587 472 "},"4":{"x_min":62,"x_max":773,"ha":827,"o":"m 773 231 l 773 287 l 615 287 l 615 945 l 532 945 l 62 274 l 62 231 l 552 231 l 552 0 l 615 0 l 615 231 l 773 231 m 552 287 l 138 287 l 552 874 l 552 287 "},"‡":{"x_min":90,"x_max":626,"ha":716,"o":"m 386 801 l 386 959 l 330 959 l 330 801 l 350 667 l 366 667 l 386 801 m 626 593 l 626 650 l 545 650 l 405 629 l 405 613 l 545 593 l 626 593 m 311 613 l 311 629 l 170 650 l 90 650 l 90 593 l 170 593 l 311 613 m 385 246 l 385 452 l 366 576 l 350 576 l 332 452 l 332 246 l 350 122 l 366 122 l 385 246 m 626 48 l 626 105 l 545 105 l 405 84 l 405 68 l 545 48 l 626 48 m 311 68 l 311 84 l 170 105 l 90 105 l 90 48 l 170 48 l 311 68 m 386 -260 l 386 -102 l 366 32 l 350 32 l 330 -102 l 330 -260 l 386 -260 "},"R":{"x_min":139,"x_max":744.78125,"ha":784,"o":"m 598 703 q 530 551 598 603 q 347 499 463 499 l 206 499 l 206 899 l 365 899 q 538 849 478 899 q 598 703 598 799 m 422 447 q 518 477 474 456 q 596 529 563 497 q 648 605 629 561 q 667 706 667 649 q 585 893 667 827 q 369 959 504 959 l 139 959 l 139 0 l 206 0 l 206 441 l 349 441 l 675 -9 l 744 5 q 721 38 744 5 q 661 120 697 70 q 583 227 625 169 q 506 333 542 285 q 446 415 470 382 q 422 447 422 447 "},"o":{"x_min":72,"x_max":648.0625,"ha":720,"o":"m 648 326 q 625 471 648 407 q 564 578 603 534 q 473 644 525 621 q 359 666 420 666 q 247 644 299 666 q 156 578 195 621 q 94 471 117 534 q 72 326 72 407 q 94 182 72 245 q 154 75 116 119 q 245 8 192 31 q 359 -14 298 -14 q 471 8 419 -14 q 563 75 524 31 q 625 182 602 119 q 648 326 648 245 m 580 326 q 565 210 580 262 q 522 120 550 158 q 453 63 493 83 q 359 42 412 42 q 265 64 306 42 q 196 123 224 86 q 154 213 169 161 q 140 326 140 265 q 154 441 140 389 q 196 530 169 493 q 265 589 224 568 q 359 610 306 610 q 453 588 412 610 q 522 529 493 566 q 565 439 550 491 q 580 326 580 387 "},"5":{"x_min":80.28125,"x_max":661,"ha":750,"o":"m 661 284 q 578 486 661 414 q 352 559 495 559 q 261 550 301 559 q 201 530 221 542 l 201 881 l 622 881 l 612 939 l 140 939 l 140 473 l 162 463 q 244 489 201 478 q 349 501 288 501 q 530 442 468 501 q 592 281 592 384 q 570 177 592 223 q 513 102 548 132 q 431 56 477 71 q 334 41 384 41 q 201 61 258 41 q 90 114 145 81 l 80 47 q 190 1 128 20 q 331 -17 251 -17 q 458 3 398 -17 q 563 64 517 24 q 634 159 608 103 q 661 284 661 214 "}}}
